<svg width="165" height="39" viewBox="0 0 165 39" fill="none" xmlns="http://www.w3.org/2000/svg">
<path d="M141.014 15.4711V39H145.16V23.3141H160.321V39H164.467V15.4711H141.014ZM144.686 7.84298H160.677C162.927 7.09091 164.526 3.43802 165 0H140.363C140.836 3.43802 142.495 6.98347 144.686 7.84298ZM128.399 39C130.472 37.3884 131.597 34.595 132.071 31.3719H113.415V0.107438H109.21V39H128.399M78.1174 7.73554H92.9235C95.1741 6.55372 97.0101 3.43802 97.4839 0.107438H74.0309V23.0992H93.2197V31.157H78.1766C75.8076 32.3388 73.794 35.2397 72.7872 39H97.3654V15.4711H78.1766L78.1174 7.73554ZM41.635 7.84298H57.6256C59.8762 7.09091 61.5345 3.43802 61.949 0H37.2523C37.7261 3.43802 39.3844 6.98347 41.635 7.84298ZM41.635 23.2066H57.6256C59.8762 22.4545 61.5345 18.8017 61.949 15.3636H37.2523C37.7261 18.8017 39.3844 22.3471 41.635 23.2066ZM41.635 39H57.6256C59.8762 38.2479 61.5345 34.595 61.949 31.157H37.2523C37.7261 34.595 39.3844 38.2479 41.635 39ZM0 0.107438C0.473798 3.54545 2.13209 6.98347 4.3234 7.84298H11.075L11.4304 8.05785V38.8926H15.6353V8.05785L15.9907 7.84298H22.7423C24.9928 6.7686 26.5919 3.54545 27.0657 0.107438V0L0 0.107438Z" fill="#5E5E5E"/>
</svg>
